<?xml version="1.0" encoding="UTF-8"?>
<svg width="169px" height="33px" viewBox="0 0 169 33" version="1.1" xmlns="http://www.w3.org/2000/svg" xmlns:xlink="http://www.w3.org/1999/xlink">
    <!-- Generator: Sketch 46.2 (44496) - http://www.bohemiancoding.com/sketch -->
    <title>Petrobras logo</title>
    <desc>Created with Sketch.</desc>
    <defs>
        <polygon id="path-1" points="0.001352 0.8606 0.001352 17.3049158 32.9074096 17.3049158 32.9074096 0.8606"></polygon>
    </defs>
    <g id="Symbols" stroke="none" stroke-width="1" fill="none" fill-rule="evenodd">
        <g id="Header" transform="translate(-155.000000, -41.000000)">
            <g transform="translate(155.000000, 41.000000)" id="Petrobras-logo">
                <g>
                    <g id="Group-7">
                        <path d="M84.6346592,13.5922316 L85.0929872,11.9788632 L84.6346592,11.9788632 L73.9362832,11.9788632 L73.0399072,15.2056 L76.6213552,15.2056 L74.0660752,24.2659158 L78.0409552,24.2659158 L80.5948832,15.2056 L84.1763312,15.2056 L84.6346592,13.5922316 Z M92.0152272,17.2828632 C93.0413952,17.2158105 93.6741312,16.8846526 93.8931552,16.1114947 C94.1324592,15.2493895 93.5646192,14.8292842 92.6479632,14.8292842 L92.0152272,14.8292842 L90.7916672,14.8292842 L90.0940352,17.2828632 L91.6650592,17.2828632 L92.0152272,17.2828632 Z M92.0152272,22.3432842 C92.0368592,22.2776 92.0584912,22.2119158 92.0801232,22.1229684 C92.3640432,21.1513895 92.4302912,20.5752842 92.0152272,20.2660211 C91.7529392,20.0676 91.2946112,19.9786526 90.5523632,19.9786526 L89.3517872,19.9786526 L88.1714912,24.2659158 L84.6346592,24.2659158 L84.1763312,24.2659158 L84.6346592,22.6525474 L87.6266352,11.9788632 L92.0152272,11.9788632 L93.3455952,11.9788632 C97.4083552,11.9788632 98.4128912,13.0845474 97.7571712,15.4710737 C97.3421072,16.8846526 96.4038192,18.0779158 94.8747072,18.4761263 C96.0103872,18.9619158 96.7093712,19.2711789 96.0103872,21.7480211 C95.5520592,23.3600211 95.3560192,23.8909684 95.8359792,23.8909684 L95.7264672,24.2659158 L92.0152272,24.2659158 L91.6866912,24.2659158 C91.6650592,24.0237053 91.7745712,23.3162316 92.0152272,22.3432842 L92.0152272,22.3432842 Z M106.011131,11.8461263 C106.600603,11.7133895 107.211707,11.6477053 107.822811,11.6477053 C112.168139,11.6477053 113.325451,14.8073895 112.408795,18.0560211 C111.425891,21.5263368 108.892243,23.7363368 106.011131,24.3986526 C105.421659,24.5313895 104.810555,24.5970737 104.177819,24.5970737 C100.377347,24.5970737 98.4994192,22.2119158 99.6567312,18.0122316 C100.573387,14.7854947 103.019155,12.5098105 106.011131,11.8461263 L106.011131,11.8461263 Z M106.011131,21.4154947 C107.190075,20.9516 107.975587,19.6693895 108.412283,18.0560211 C108.892243,16.3769684 108.716483,14.6089684 106.949419,14.6527579 C106.600603,14.6527579 106.295051,14.7198105 106.011131,14.8292842 C104.765939,15.3383368 104.002059,16.7957053 103.653243,18.0560211 C103.193563,19.6256 103.128667,21.5920211 105.028227,21.5920211 C105.377043,21.5920211 105.705579,21.5263368 106.011131,21.4154947 L106.011131,21.4154947 Z M120.247691,19.1398105 C121.491531,19.1398105 122.408187,19.2054947 122.102635,20.2660211 C121.863331,21.1513895 121.142715,21.3717053 120.247691,21.3936 L120.050299,21.3936 L118.325147,21.3936 L118.959235,19.1398105 L120.226059,19.1398105 L120.247691,19.1398105 Z M120.247691,14.8292842 L121.557779,14.8292842 C122.408187,14.8292842 123.173419,14.8525474 122.911131,15.8241263 C122.715091,16.5316 122.037739,16.8846526 121.230595,16.8846526 L120.247691,16.8846526 L119.590619,16.8846526 L120.159811,14.8292842 L120.247691,14.8292842 Z M120.247691,24.2440211 C122.999011,24.0893895 125.029715,23.0959158 125.727347,20.5752842 C126.099147,19.2273895 125.727347,18.0779158 124.505139,17.7467579 C125.421795,17.2609684 126.492579,16.3318105 126.841395,15.0728632 C127.517395,12.6192842 125.531307,11.9788632 122.801619,11.9788632 L120.247691,11.9788632 L116.971795,11.9788632 L113.521491,24.2659158 L119.460827,24.2659158 C119.723115,24.2659158 119.984051,24.2659158 120.247691,24.2440211 L120.247691,24.2440211 Z M135.334659,17.2828632 C136.360827,17.2158105 136.994915,16.8846526 137.212587,16.1114947 C137.453243,15.2493895 136.884051,14.8292842 135.968747,14.8292842 L135.334659,14.8292842 L134.112451,14.8292842 L133.413467,17.2828632 L134.985843,17.2828632 L135.334659,17.2828632 Z M140.990075,15.7132842 C141.034691,15.6257053 141.053619,15.5586526 141.077955,15.4710737 C141.340243,14.5432842 141.340243,13.7906526 140.990075,13.2391789 C140.466851,12.3770737 139.135131,11.9788632 136.666379,11.9788632 L135.334659,11.9788632 L130.924435,11.9788632 L127.474131,24.2659158 L131.449011,24.2659158 L132.671219,19.9786526 L133.873147,19.9786526 C134.614043,19.9786526 135.072371,20.0676 135.334659,20.2660211 C135.749723,20.5752842 135.684827,21.1513895 135.400907,22.1229684 C135.377923,22.2119158 135.356291,22.2776 135.334659,22.3432842 C135.072371,23.3162316 134.985843,24.0237053 135.007475,24.2659158 L135.334659,24.2659158 L139.047251,24.2659158 L139.135131,23.8909684 C138.675451,23.8909684 138.871491,23.3600211 139.331171,21.7480211 C140.030155,19.2711789 139.331171,18.9619158 138.195491,18.4761263 C139.636723,18.0998105 140.575011,17.0173895 140.990075,15.7132842 L140.990075,15.7132842 Z M168.458659,15.5367579 C168.764211,13.3938105 167.716411,11.6477053 164.353987,11.6477053 C161.295763,11.6477053 158.698571,12.9504421 157.977955,15.5805474 C156.646235,20.2660211 164.003819,18.9851789 163.480595,20.8626526 C163.327819,21.4373895 162.562587,21.7685474 161.581035,21.7685474 C161.187603,21.7685474 160.794171,21.6590737 160.531883,21.4606526 C160.249315,21.2389684 160.095187,20.9297053 160.139803,20.4877053 L156.317699,20.4877053 C155.794475,22.6977053 157.343867,24.5970737 160.554867,24.5970737 C163.895659,24.5970737 166.645627,23.2053895 167.432491,20.3549684 C168.699315,15.8898105 161.383643,17.0173895 161.908219,15.1823368 C162.017731,14.7417053 162.476059,14.4762316 163.371083,14.4762316 C163.741531,14.4762316 164.091699,14.5432842 164.331003,14.6979158 C164.571659,14.8525474 164.724435,15.1166526 164.658187,15.5367579 L168.458659,15.5367579 Z M148.304395,12.3770737 L148.566683,11.9788632 L152.628091,11.9788632 L153.523115,24.2659158 L149.549587,24.2659158 L149.549587,22.6525474 L148.304395,22.6525474 L145.576059,22.6525474 L144.658051,24.2659158 L140.990075,24.2659158 L140.750771,24.2659158 L140.990075,23.8909684 L148.304395,12.3770737 Z M148.304395,20.0894947 L149.571219,20.0894947 L149.527955,15.6694947 L148.304395,17.8357053 L147.060555,20.0894947 L148.304395,20.0894947 Z M52.2772432,14.8292842 L52.2772432,14.8292842 L51.1861792,14.8292842 L50.4412272,17.5647579 L52.2758912,17.5702316 C53.1046672,17.5264421 53.8036512,17.1282316 54.0875712,16.1333895 C54.3931232,14.9839158 53.1709152,14.8292842 52.3191552,14.8292842 L52.2772432,14.8292842 Z M52.2772432,20.4206526 L52.2772432,20.4220211 C52.0595712,20.4439158 51.8405472,20.4439158 51.6228752,20.4439158 L49.6138032,20.4439158 L48.5443712,24.2659158 L44.5478592,24.2659158 L48.0197952,11.9788632 L52.2758912,11.9788632 L53.8698992,11.9788632 C57.3634672,11.9788632 58.5856752,13.5922316 57.8866912,16.1114947 C57.1890592,18.6088632 55.3760272,20.2222316 52.2772432,20.4206526 L52.2772432,20.4206526 Z M0.0048672,32.9991789 L32.9057872,32.9991789 L32.9057872,11.8994947 L0.0048672,11.8994947 L0.0048672,32.9991789 Z M68.2146192,24.2659158 L58.0610992,24.2659158 L61.5100512,11.9788632 L71.4242672,11.9788632 L70.6171232,14.8292842 L64.6994192,14.8292842 L64.1978272,16.5972842 L69.2191552,16.5972842 L68.4120112,19.4709684 L63.3893312,19.4709684 L62.8431232,21.3936 L69.0231152,21.3936 L68.2146192,24.2659158 Z" id="Fill-2" fill="#008542"></path>
                        <g id="Group-6" transform="translate(0.000000, 7.000000)">
                            <mask id="mask-2" fill="white">
                                <use xlink:href="#path-1"></use>
                            </mask>
                            <g id="Clip-5"></g>
                            <path d="M9.1392496,7.35923158 L11.8824576,7.35923158 C12.4259616,7.35923158 12.9207936,7.71365263 12.9207936,8.2966 C12.9207936,9.08344211 12.3015776,9.63491579 11.4417056,9.63491579 L8.5051616,9.63491579 L9.1392496,7.35923158 Z M7.8426816,11.9968105 L10.2127376,11.9968105 C11.3727536,11.9968105 11.4417056,12.3156526 11.6012416,12.5893368 C11.7580736,12.8616526 11.6864176,13.4350211 11.5769056,13.6320737 C11.4376496,13.8811263 11.2037536,14.6501789 9.7179056,14.6501789 L7.0828576,14.6501789 C7.0828576,14.6501789 7.8413296,11.9995474 7.8426816,11.9968105 L7.8426816,11.9968105 Z M22.6322096,7.37291579 L25.2226416,7.37291579 C26.4529616,7.37291579 26.5016336,8.2186 26.5016336,8.45944211 C26.5016336,9.02186316 26.0122096,10.1261789 24.5223056,10.1261789 L21.8818496,10.1261789 C21.8818496,10.1261789 22.6186896,7.44133684 22.6322096,7.37291579 L22.6322096,7.37291579 Z M32.9074096,4.89881053 L32.9074096,0.8606 L-0.0002704,0.8606 L-0.0002704,4.89881053 L6.3324976,4.89881053 L2.8240576,17.1817579 L10.0058816,17.1817579 C13.1154816,17.1817579 13.6589856,16.4455474 14.2903696,15.9091263 C15.1340176,15.1934421 15.5855856,13.4897579 15.2070256,12.3047053 C14.9393296,11.4672316 14.1551696,10.9595474 14.0686416,10.9349158 C15.0420816,10.4778632 15.6072176,9.47754737 15.6775216,9.32975789 C16.0385056,8.57028421 16.3183696,7.19638947 15.4206416,6.08933684 C14.6756896,5.16975789 13.2249936,4.91796842 12.1758416,4.89881053 L19.8646656,4.89881053 L16.3440576,17.2050211 L19.9065776,17.2050211 L21.2085536,12.5400737 L23.2446656,12.5400737 C24.7237536,12.5400737 24.5885536,13.4719684 24.6250576,13.8729158 L24.7413296,17.3049158 L28.0510256,17.3035474 C28.0510256,17.3035474 27.9023056,13.4528105 27.8887856,13.1709158 C27.8455216,12.1815474 27.1952096,11.7354421 26.6449456,11.7354421 C27.7035616,11.4453368 28.6256256,10.4723895 28.9933696,9.84702105 C29.4165456,9.12723158 29.7342656,7.98186316 29.3164976,6.84333684 C28.7080976,5.19165263 27.1384256,4.91796842 26.0406016,4.89881053 L32.9074096,4.89881053 Z" id="Fill-4" fill="#FFFFFF" mask="url(#mask-2)"></path>
                        </g>
                        <polygon id="Fill-1" fill="#FEDF00" points="0 8 33 8 33 0 0 0"></polygon>
                    </g>
                </g>
            </g>
        </g>
    </g>
</svg>